<svg xmlns="http://www.w3.org/2000/svg" enable-background="new 0 0 24 24" viewBox="0 0 24 24" id="gofundme"><g fill="#00b460"><path d="M23.706 4.806c-.45-.534-1.515-.666-2.173-.362-.139.064-.284.116-.409.205l-3.946 2.82c-.282.241-.536.516-.575.873-.037.325 0 .594.289.885.653.655 1.808.66 2.357.33.506-.302 3.842-2.731 4.387-3.127l.141-.139c.162-.221.441-.876-.071-1.485zM12.027 8.39c.843 0 1.549-.377 1.75-1.078.025-.096.04-.196.04-.295l.018-2.529.002-.064c0-.971-.794-1.424-1.794-1.424-.993 0-1.798.525-1.808 1.487l-.002 2.549c-.002.1.009.198.03.296.171.728.896 1.058 1.764 1.058zM17.236 10.291c-1.339-.657-3.11-1.069-5.421-1.069-3.872 0-6.469 1.203-7.788 2.955h.021l-.004.007 15.585-.002c-.571-.726-1.352-1.381-2.393-1.891z"></path></g><path fill="#009d54" d="M12 3c-.973.015-1.755.539-1.764 1.487l-.002 2.549c-.002.1.009.198.03.296.168.72.88 1.051 1.736 1.058zM11.815 9.222c-3.872 0-6.469 1.203-7.788 2.955h.021l-.004.007 7.956-.002v-2.959c-.061-.001-.123-.001-.185-.001z"></path><path fill="#00b460" d="m7.105 9.127c.289-.291.325-.56.289-.885-.04-.357-.296-.632-.576-.873l-3.946-2.82c-.124-.089-.267-.141-.406-.205-.658-.305-1.72-.173-2.17.361-.515.61-.235 1.265-.071 1.483l.141.139c.542.396 3.878 2.827 4.384 3.13.547.33 1.702.325 2.355-.33z"></path><path fill="#009d54" d="M.436 4.567c-.051.043-.098.089-.14.139-.515.61-.235 1.265-.071 1.483l.141.139c.542.395 3.878 2.826 4.384 3.129.226.136.555.215.91.215.48 0 1.007-.145 1.387-.49zM17.028 9.388c-.052-.043-.099-.089-.141-.138-.515-.61-.235-1.265-.071-1.483l.141-.139c.543-.396 3.879-2.827 4.385-3.129.226-.136.555-.215.91-.215.48 0 1.007.145 1.387.49z"></path><path fill="#00b460" d="M4.886 15.261c.196-.168.376-.323.579-.446.582-.355 1.217-.464 1.889-.405.315.025.624.1.912.225.415.182.725.478.977.841l.111.002c.432-.635 1.048-.982 1.806-1.074.751-.091 1.448.055 2.027.569.291.259.455.596.524.975.044.252.065.509.065.769.002 1.303 0 2.609.004 3.912 0 .111-.032.136-.141.136-.697-.004-1.393-.004-2.09 0-.102 0-.129-.025-.129-.125.005-1.028.005-2.054.002-3.082.002-.246-.023-.491-.079-.732-.201-.841-1.17-.846-1.602-.448-.266.246-.354.557-.393.896-.032.287-.021.576-.021.862-.002.837 0 1.676.002 2.513 0 .086-.019.116-.113.116-.708-.004-1.415-.004-2.124 0-.099 0-.12-.03-.12-.123.002-1.04.002-2.077.002-3.116 0-.211-.007-.423-.048-.632-.076-.389-.314-.632-.702-.728-.457-.111-.91.057-1.15.428-.143.223-.175.478-.178.73-.009 1.099-.009 2.199-.004 3.298 0 .118-.032.143-.148.141-.697-.004-1.392-.004-2.089 0-.097 0-.12-.027-.12-.12.002-2.013.002-4.026 0-6.039 0-.098.032-.118.124-.116.704.004 1.409.004 2.113 0 .099 0 .122.032.12.123-.011.206-.006.415-.006.65zM19.975 18.04h-2.318c-.134 0-.145.014-.127.146.019.127.025.254.06.379.109.396.349.669.751.791.349.107.7.128 1.055.023.256-.075.459-.228.617-.437l.171-.089c.676.002 1.355.002 2.032 0 .111 0 .118.032.085.125-.358 1.042-1.113 1.638-2.173 1.899-.344.084-.695.116-1.05.121-.614.011-1.222-.043-1.799-.259-1.134-.423-1.852-1.212-2.069-2.397-.164-.905-.044-1.774.464-2.563.388-.605.935-1.023 1.625-1.242.933-.296 1.884-.319 2.826-.055 1.166.325 1.856 1.119 2.173 2.249.113.4.129.815.123 1.226 0 .091-.056.081-.113.081h-2.333zm-1.069-1.258h1.224l.087-.071c-.085-.313-.228-.593-.505-.789-.279-.195-.596-.225-.924-.211-.6.023-1.053.4-1.182.978l.079.093z"></path><path fill="#009d54" d="M4.897 17.379h-2.359c0 1.088 0 2.177-.002 3.265 0 .093.023.12.12.12.349-.002.697-.003 1.045-.003s.696.001 1.045.003h.014c.104 0 .134-.028.134-.141-.006-1.08-.006-2.163.003-3.244zm4.442 0h-2.365c.001.05.001.099.001.149 0 1.04 0 2.077-.002 3.116 0 .093.021.123.12.123.354-.002.708-.003 1.062-.003s.708.001 1.062.003c.095 0 .113-.03.113-.116-.002-.837-.004-1.676-.002-2.513 0-.253-.009-.506.011-.759zm4.437 0h-2.357c.003.06.004.121.003.181.002 1.028.002 2.054-.002 3.082 0 .1.028.125.129.125.349-.002.697-.003 1.045-.003s.696.001 1.045.003c.108 0 .141-.025.141-.136-.004-1.084-.003-2.169-.004-3.252zM22.407 17.379h-7.259c-.02.315.003.637.062.963.217 1.185.935 1.974 2.069 2.397.53.199 1.087.261 1.65.261.05 0 .099 0 .149-.001.355-.004.706-.036 1.05-.121 1.06-.261 1.815-.857 2.173-1.899.032-.093.025-.125-.085-.125-.338.001-.677.002-1.016.002s-.678-.001-1.016-.002l-.171.089c-.157.209-.36.361-.617.437-.16.047-.318.069-.476.069-.194 0-.387-.033-.579-.092-.402-.123-.642-.396-.751-.791-.035-.125-.041-.252-.06-.379-.018-.132-.007-.146.127-.146h2.318 2.332.029c.046 0 .084-.006.084-.082.003-.194.001-.388-.013-.58z"></path></svg>