<svg xmlns="http://www.w3.org/2000/svg" width="128" height="128" data-name="Layer 1" id="square"><path d="M122 0H6a6.007 6.007 0 0 0-6 6v116a6.007 6.007 0 0 0 6 6h116a6.007 6.007 0 0 0 6-6V6a6.007 6.007 0 0 0-6-6Zm2 122a2.002 2.002 0 0 1-2 2H6a2.002 2.002 0 0 1-2-2V6a2.002 2.002 0 0 1 2-2h116a2.002 2.002 0 0 1 2 2Z"></path><path d="M82 42H46a4.005 4.005 0 0 0-4 4v36a4.004 4.004 0 0 0 4 4h36a4.004 4.004 0 0 0 4-4V46a4.005 4.005 0 0 0-4-4ZM46 82V46h36l.002 36Z"></path><path d="M76 50H52a2 2 0 0 0-2 2v24a2 2 0 0 0 2 2h24a2 2 0 0 0 2-2V52a2 2 0 0 0-2-2zm-2 24H54V54h20zM22.45 19.123l2.278.207a2 2 0 1 0 .362-3.984l-7.778-.707a2 2 0 0 0-2.173 2.173l.707 7.778a2 2 0 0 0 1.99 1.82c.06 0 .121-.003.183-.01a2 2 0 0 0 1.81-2.172l-.206-2.277 14.832 14.832a2 2 0 0 0 2.828-2.828zm12.005 72.094-14.832 14.832.207-2.278a2 2 0 1 0-3.984-.36l-.707 7.777a2 2 0 0 0 1.992 2.181c.06 0 .12-.003.181-.008l7.778-.707a2 2 0 0 0-.362-3.984l-2.277.207 14.832-14.832a2 2 0 0 0-2.828-2.828zm76.233-76.578-7.778.707a2 2 0 1 0 .362 3.984l2.277-.207-14.832 14.832a2 2 0 1 0 2.828 2.828l14.832-14.832-.207 2.277a2 2 0 0 0 1.81 2.173c.062.006.124.008.185.008a2 2 0 0 0 1.989-1.819l.707-7.778a2 2 0 0 0-2.173-2.173zm-.707 86.96a2 2 0 0 0-1.81 2.172l.206 2.278-14.832-14.832a2 2 0 0 0-2.828 2.828l14.832 14.832-2.277-.207a2 2 0 0 0-.362 3.984l7.778.707c.06.005.121.008.181.008a2 2 0 0 0 1.992-2.18l-.707-7.779a2.01 2.01 0 0 0-2.173-1.811z"></path></svg>